<svg width="130" height="113" viewBox="0 0 130 113" fill="none" xmlns="http://www.w3.org/2000/svg">
<path d="M53.4056 31.1151C53.5824 30.4599 53.9696 29.8809 54.5076 29.4675C55.0456 29.0541 55.7047 28.8292 56.3831 28.8273H122.276L130 0H42.0711C37.6641 2.76771e-05 33.3802 1.4545 29.8837 4.1379C26.3871 6.8213 23.8733 10.5837 22.732 14.8417L1.37189 94.5899C0.821415 96.6439 0.750663 98.7969 1.16509 100.883C1.57953 102.968 2.46802 104.931 3.76188 106.618C5.05574 108.305 6.72025 109.672 8.62668 110.613C10.5331 111.553 12.6303 112.043 14.7561 112.043H84.5899C89.0001 112.044 93.2871 110.588 96.7853 107.902C100.284 105.215 102.797 101.449 103.936 97.187L112.89 63.6619C113.437 61.6084 113.504 59.4568 113.088 57.373C112.671 55.2893 111.781 53.3292 110.487 51.644C109.193 49.9588 107.529 48.5935 105.624 47.6536C103.719 46.7137 101.623 46.2242 99.4988 46.223H65.3946L60.051 65.8201H73.3705C73.8432 65.8194 74.3097 65.9276 74.7338 66.1363C75.158 66.345 75.5284 66.6487 75.8163 67.0237C76.1042 67.3986 76.302 67.8349 76.3942 68.2987C76.4864 68.7624 76.4705 69.2412 76.3479 69.6978L73.3345 80.9281C73.1614 81.5839 72.7762 82.1641 72.2389 82.5779C71.7015 82.9918 71.0424 83.2161 70.3643 83.2158H43.4664C42.9942 83.2151 42.5284 83.106 42.105 82.8968C41.6816 82.6877 41.3119 82.3841 41.0242 82.0095C40.7366 81.6349 40.5387 81.1993 40.4459 80.7361C40.3531 80.273 40.3678 79.7947 40.4889 79.3381L53.4056 31.1151Z" fill="url(#paint0_linear_1_41)"/>
<defs>
<linearGradient id="paint0_linear_1_41" x1="65.4594" y1="-52.5108" x2="65.4594" y2="107.669" gradientUnits="userSpaceOnUse">
<stop stop-color="#EB1D20"/>
<stop offset="0.99" stop-color="#FFC600"/>
</linearGradient>
</defs>
</svg>
