<svg width="122" height="113" viewBox="0 0 122 113" fill="none" xmlns="http://www.w3.org/2000/svg">
<path d="M106.389 0H49.8743C39.4316 0 28.6293 8.48921 25.7812 18.9137L19.6393 41.4604H51.3486L54.8799 28.5108C55.0172 28.0835 55.2787 27.7067 55.6309 27.4287C55.9832 27.1506 56.4103 26.9839 56.8577 26.9496H85.5392C85.6738 26.9385 85.8092 26.9595 85.9342 27.0107C86.0592 27.062 86.1703 27.1421 86.2584 27.2446C86.3407 27.3709 86.3932 27.5142 86.4119 27.6638C86.4306 27.8134 86.415 27.9653 86.3663 28.1079L84.5323 34.813C84.4441 35.1007 84.2986 35.3675 84.1045 35.5975C83.9105 35.8275 83.6719 36.0158 83.4032 36.1511L24.0192 60.482C17.2804 63.8417 11.9583 70.1151 10.1244 76.8489L0.544678 112.043H95.1764L103.037 83.2158H40.1004V83.1583C40.5104 81.6403 41.5388 81.2446 42.9772 80.4964L100.786 56.964C108.323 53.9353 112.854 47.3237 114.688 40.5899L120.442 19.3165C121.88 14.0647 121.111 9.13669 118.284 5.44604C115.616 1.93525 111.394 0 106.389 0Z" fill="url(#paint0_linear_1_40)"/>
<defs>
<linearGradient id="paint0_linear_1_40" x1="60.842" y1="-52.5108" x2="60.842" y2="107.669" gradientUnits="userSpaceOnUse">
<stop stop-color="#EB1D20"/>
<stop offset="0.99" stop-color="#FFC600"/>
</linearGradient>
</defs>
</svg>
